<?xml version="1.0" standalone="no"?><!DOCTYPE svg PUBLIC "-//W3C//DTD SVG 1.1//EN" "http://www.w3.org/Graphics/SVG/1.1/DTD/svg11.dtd"><svg t="1680682837353" class="icon" viewBox="0 0 1024 1024" version="1.1" xmlns="http://www.w3.org/2000/svg" p-id="1522" xmlns:xlink="http://www.w3.org/1999/xlink" width="16" height="16"><path d="M537.134545 367.476364h93.09091v93.090909h-93.09091zM281.134545 367.476364h93.09091v93.090909h-93.09091z" fill="#FFEFDB" p-id="1523"></path><path d="M676.770909 507.112727h-186.181818v-186.181818h100.538182a370.036364 370.036364 0 0 0-202.705455-69.818182h-28.625454a372.363636 372.363636 0 1 0 316.974545 155.229091z m-442.181818-186.181818h186.181818v186.181818h-186.181818z m418.909091 372.363636h-256v93.09091l-162.909091-116.363637 162.909091-116.363636v93.090909h256z" fill="#FFEFDB" p-id="1524"></path><path d="M420.770909 251.345455v-186.181819h-186.181818v186.181819h186.181818z m-139.636364-139.636364h93.09091v93.090909h-93.09091zM676.770909 65.163636h-186.181818v186.181819h186.181818z m-46.545454 139.636364h-93.09091v-93.090909h93.09091zM746.589091 65.163636v186.181819h186.181818v-186.181819z m139.636364 139.636364h-93.09091v-93.090909h93.09091zM420.770909 320.930909h-186.181818v186.181818h186.181818z m-46.545454 139.636364h-93.09091v-93.090909h93.09091zM490.589091 507.112727h186.181818v-186.181818h-186.181818z m46.545454-139.636363h93.09091v93.090909h-93.09091zM746.589091 507.112727h186.181818v-186.181818h-186.181818z m46.545454-139.636363h93.09091v93.090909h-93.09091zM746.589091 623.010909v139.636364h186.181818v-186.181818h-186.181818z m46.545454 0h93.09091v93.090909h-93.09091z" fill="#040405" p-id="1525"></path><path d="M397.498182 554.123636l-162.909091 116.130909 162.909091 116.596364V693.527273h256v-46.545455h-256v-92.858182z" fill="#FF9E1F" p-id="1526"></path></svg>