<?xml version="1.0" standalone="no"?><!DOCTYPE svg PUBLIC "-//W3C//DTD SVG 1.1//EN" "http://www.w3.org/Graphics/SVG/1.1/DTD/svg11.dtd"><svg t="1680682102237" class="icon" viewBox="0 0 1024 1024" version="1.1" xmlns="http://www.w3.org/2000/svg" p-id="56860" xmlns:xlink="http://www.w3.org/1999/xlink" width="16" height="16"><path d="M307.2 486.4V194.56c0-23.04 17.92-40.96 40.96-40.96h478.72c25.6 0 43.52 17.92 43.52 40.96v478.72c0 23.04-17.92 40.96-40.96 40.96h-158.72l-227.84-386.56c-2.56-2.56-5.12-7.68-10.24-10.24-12.8-7.68-28.16-2.56-35.84 10.24L307.2 486.4z" fill="#2589FF" p-id="56861"></path><path d="M445.44 448l243.2 417.28c7.68 12.8 2.56 28.16-10.24 35.84-5.12 2.56-7.68 2.56-12.8 2.56H179.2c-15.36 0-25.6-10.24-25.6-25.6 0-5.12 0-10.24 2.56-12.8l243.2-417.28c7.68-12.8 23.04-15.36 35.84-10.24 5.12 2.56 7.68 5.12 10.24 10.24z" fill="#A9CFFF" p-id="56862"></path></svg>