<?xml version="1.0" standalone="no"?><!DOCTYPE svg PUBLIC "-//W3C//DTD SVG 1.1//EN" "http://www.w3.org/Graphics/SVG/1.1/DTD/svg11.dtd"><svg t="1680681717256" class="icon" viewBox="0 0 1024 1024" version="1.1" xmlns="http://www.w3.org/2000/svg" p-id="46240" xmlns:xlink="http://www.w3.org/1999/xlink" width="16" height="16"><path d="M0 0h1024v1024H0V0z" fill="#202425" opacity=".01" p-id="46241"></path><path d="M42.973867 381.5424a34.133333 34.133333 0 0 1 24.132266-41.813333l759.466667-228.488534a34.133333 34.133333 0 0 1 41.813333 24.132267c50.961067 190.190933 78.2336 291.874133 123.665067 461.585067a34.133333 34.133333 0 0 1-24.132267 41.813333l-759.466666 228.488533a34.133333 34.133333 0 0 1-41.813334-24.132266l-31.402666-117.282134c45.2608-26.077867 68.983467-81.6128 54.340266-136.226133-14.609067-54.613333-62.941867-90.897067-115.2-90.8288l-31.402666-117.248z" fill="#FFAA44" p-id="46242"></path><path d="M34.133333 341.333333a34.133333 34.133333 0 0 1 34.133334-34.133333h887.466666a34.133333 34.133333 0 0 1 34.133334 34.133333v140.834134a136.6016 136.6016 0 0 0 0 264.465066V887.466667a34.133333 34.133333 0 0 1-34.133334 34.133333H68.266667a34.133333 34.133333 0 0 1-34.133334-34.133333v-140.834134a136.6016 136.6016 0 0 0 0-264.465066V341.333333z" fill="#11AA66" p-id="46243"></path><path d="M307.2 443.733333a34.133333 34.133333 0 1 1 68.266667 0v341.333334a34.133333 34.133333 0 1 1-68.266667 0V443.733333z" fill="#FFFFFF" p-id="46244"></path></svg>