<?xml version="1.0" standalone="no"?><!DOCTYPE svg PUBLIC "-//W3C//DTD SVG 1.1//EN" "http://www.w3.org/Graphics/SVG/1.1/DTD/svg11.dtd"><svg t="1680681023733" class="icon" viewBox="0 0 1024 1024" version="1.1" xmlns="http://www.w3.org/2000/svg" p-id="20526" xmlns:xlink="http://www.w3.org/1999/xlink" width="16" height="16"><path d="M877.6 757.7h-564c-9.5 0-18.4-4.6-23.8-12.3L155.6 555.1c-7.1-10.1-7.1-23.5 0-33.6l134.2-190.3c5.5-7.7 14.3-12.3 23.8-12.3h564c24.6 0 44.5 19.9 44.5 44.5v349.9c-0.1 24.5-20 44.4-44.5 44.4z" fill="#EAEAEA" p-id="20527"></path><path d="M233.1 524.7c-1.1-0.7-27.1-17.6-49-42.4-39.1-44.3-33.4-77.5-21.7-97.6l0.2-0.4c0.9-1.5 9.7-14.4 28.3-17.3 17.8-2.8 37.6 4.8 58.9 22.5L237 404.9c-16.5-13.7-31.4-19.9-43.1-18.1-9.1 1.4-13.8 7.4-14.5 8.2-29.4 51.5 63.6 112.3 64.5 112.9l-10.8 16.8z" fill="#EAEAEA" p-id="20528"></path><path d="M845.7 715.1h-564c-9.5 0-18.4-4.6-23.8-12.3L123.7 512.5c-7.1-10.1-7.1-23.5 0-33.6l134.2-190.3c5.5-7.7 14.3-12.3 23.8-12.3h564c24.6 0 44.5 19.9 44.5 44.5v349.9c0 24.5-20 44.4-44.5 44.4z" fill="#FCD703" p-id="20529"></path><path d="M741.1 322.7H886v20H741.1zM741.1 353.4H886v40H741.1zM741.1 404.2H886v20H741.1zM741.1 434.9H886v40H741.1zM741.1 485.7H886v20H741.1zM741.1 516.4H886v40H741.1zM741.1 567.2H886v20H741.1zM741.1 597.9H886v40H741.1zM741.1 648.7H886v20H741.1z" fill="#47473B" p-id="20530"></path><path d="M845.7 725.1h-564c-12.7 0-24.7-6.2-32-16.6L115.6 518.2c-9.5-13.5-9.5-31.6 0-45.1l134.2-190.3c7.3-10.4 19.3-16.6 32-16.6h564c30 0 54.5 24.4 54.5 54.5v349.9c-0.1 30.1-24.6 54.5-54.6 54.5z m-564-438.8c-6.2 0-12.1 3-15.6 8.1L131.9 484.6c-4.7 6.6-4.7 15.5 0 22.1L266.1 697c3.6 5.1 9.4 8.1 15.6 8.1h564c19 0 34.5-15.5 34.5-34.5V320.8c0-19-15.5-34.5-34.5-34.5h-564z" fill="#47473B" p-id="20531"></path><path d="M229.1 495.7m-33.7 0a33.7 33.7 0 1 0 67.4 0 33.7 33.7 0 1 0-67.4 0Z" fill="#47473B" p-id="20532"></path><path d="M206.6 483.7c-1.9 0-3.7-0.5-5.4-1.6-1.1-0.7-27.1-17.6-49-42.4-39.1-44.3-33.4-77.5-21.7-97.6 0.1-0.1 0.2-0.3 0.2-0.4 0.9-1.5 9.7-14.4 28.3-17.3 17.8-2.8 37.6 4.8 58.9 22.5 4.3 3.5 4.8 9.8 1.3 14.1-3.5 4.3-9.8 4.8-14.1 1.3-16.5-13.7-31.4-19.9-43.1-18.1-9.1 1.4-13.8 7.4-14.5 8.2-29.4 51.5 63.5 112.3 64.4 112.9 4.6 3 6 9.2 3 13.8-1.8 3-5 4.6-8.3 4.6z" fill="#47473B" p-id="20533"></path><path d="M355.5 528h-10.3v-9.7h-0.2c-4.2 7.3-10.8 11-19.7 11-7.3 0-13.2-2.6-17.5-7.8-4.3-5.2-6.5-12.3-6.5-21.2 0-9.6 2.4-17.3 7.3-23.1s11.3-8.7 19.2-8.7c7.9 0 13.6 3.1 17.2 9.2h0.2V442h10.3v86z m-10.2-34.5c0-4.7-1.5-8.5-4.6-11.7-3.1-3.1-6.8-4.7-11.3-4.7-5.5 0-9.8 2-12.9 6.1s-4.7 9.6-4.7 16.7c0 6.5 1.5 11.6 4.5 15.3 3 3.8 7.1 5.6 12.1 5.6s9-1.8 12.2-5.5c3.1-3.7 4.7-8.3 4.7-13.8v-8zM366.2 449.5c0-1.8 0.6-3.3 1.9-4.6 1.2-1.2 2.8-1.9 4.6-1.9 1.9 0 3.4 0.6 4.7 1.8 1.3 1.2 1.9 2.8 1.9 4.6 0 1.8-0.6 3.3-1.9 4.5-1.3 1.2-2.8 1.8-4.7 1.8-1.9 0-3.4-0.6-4.6-1.8-1.3-1-1.9-2.5-1.9-4.4z m1.2 78.5v-58h10.3v58h-10.3zM386.3 515.5c5.2 3.7 10.8 5.6 16.7 5.6 8 0 12-2.6 12-7.9 0-2.2-0.9-4.1-2.6-5.5s-5.3-3.2-10.6-5.2c-6.4-2.6-10.6-5.1-12.5-7.7-1.9-2.5-2.9-5.6-2.9-9.2 0-5.1 2.2-9.3 6.5-12.4 4.4-3.1 9.7-4.6 16.1-4.6 4.9 0 9.5 0.9 13.7 2.6v9.9c-4.3-2.8-9.3-4.2-14.7-4.2-3.3 0-6 0.7-8 2.2-2.1 1.4-3.1 3.3-3.1 5.7 0 2.3 0.7 4.1 2.2 5.4 1.5 1.3 4.8 3 9.9 5 6.5 2.4 10.8 4.9 13.1 7.5 2.3 2.6 3.4 5.8 3.4 9.6 0 5.3-2.2 9.5-6.5 12.6-4.4 3.1-10 4.6-16.9 4.6-6 0-11.3-1.1-15.7-3.4v-10.6zM472.9 525.4c-4.4 2.7-9.8 4-16.1 4-8.4 0-15.1-2.7-20.2-8.1-5.1-5.4-7.7-12.4-7.7-20.9 0-9.5 2.8-17.2 8.3-23 5.5-5.8 12.9-8.7 22.1-8.7 5.3 0 9.9 0.9 13.6 2.8v10.2c-4.1-3-8.6-4.5-13.6-4.5-5.9 0-10.7 2-14.3 6.1-3.7 4.1-5.5 9.5-5.5 16.3 0 6.7 1.7 11.9 5.2 15.7 3.5 3.8 8.2 5.7 14.1 5.7 5 0 9.7-1.6 14.2-4.9v9.3zM476.4 499.6c0-9.6 2.7-17.1 8-22.7 5.4-5.5 12.6-8.3 21.8-8.3 8.7 0 15.5 2.7 20.5 8 4.9 5.3 7.4 12.7 7.4 22.1 0 9.2-2.6 16.6-7.9 22.2-5.3 5.6-12.4 8.4-21.2 8.4-8.7 0-15.6-2.7-20.8-8.2-5.2-5.4-7.8-12.5-7.8-21.5z m10.5-0.3c0 6.7 1.7 11.9 5.1 15.8 3.4 3.8 7.9 5.8 13.6 5.8 5.9 0 10.4-1.9 13.4-5.6 3.1-3.8 4.6-9.2 4.6-16.2 0-7.1-1.5-12.5-4.6-16.3s-7.6-5.7-13.4-5.7c-5.8 0-10.3 2-13.7 5.9-3.3 4-5 9.4-5 16.3zM590 528h-10.3v-9.1h-0.2c-3.9 7-9.8 10.5-17.9 10.5-13.7 0-20.6-8.2-20.6-24.7V470h10.2v33.2c0 11.8 4.5 17.7 13.5 17.7 4.5 0 8.1-1.7 10.9-5 2.8-3.3 4.1-7.5 4.1-12.5V470H590v58zM650.9 528h-10.2v-33c0-11.9-4.4-17.9-13.1-17.9-4.5 0-8.2 1.7-11.1 5s-4.4 7.6-4.4 12.7V528h-10.3v-58h10.3v9.6h0.2c4.4-7.3 10.7-11 19-11 6.4 0 11.2 2 14.5 6.1 3.3 4.1 5 10 5 17.8V528zM689.5 527.4c-2.2 1.2-5.3 1.8-9.1 1.8-10.4 0-15.6-5.8-15.6-17.3v-33.5h-10V470h10v-14l10.2-3.3V470h14.4v8.5H675v31.7c0 3.8 0.6 6.5 1.9 8.2 1.3 1.6 3.4 2.5 6.5 2.5 2.3 0 4.3-0.6 6-1.9v8.4z" fill="" p-id="20534"></path><path d="M355.5 528h-10.3v-9.7h-0.2c-4.2 7.3-10.8 11-19.7 11-7.3 0-13.2-2.6-17.5-7.8-4.3-5.2-6.5-12.3-6.5-21.2 0-9.6 2.4-17.3 7.3-23.1 4.9-5.8 11.3-8.7 19.2-8.7 7.9 0 13.6 3.1 17.2 9.2h0.2V442h10.3v86z m-10.2-34.5c0-4.7-1.5-8.5-4.6-11.7-3.1-3.1-6.8-4.7-11.3-4.7-5.5 0-9.8 2-12.9 6.1-3.1 4.1-4.7 9.6-4.7 16.7 0 6.5 1.5 11.6 4.5 15.3 3 3.8 7.1 5.6 12.1 5.6s9-1.8 12.2-5.5c3.1-3.7 4.7-8.3 4.7-13.8v-8zM366.2 449.5c0-1.8 0.6-3.3 1.9-4.6 1.2-1.2 2.8-1.9 4.6-1.9 1.9 0 3.4 0.6 4.7 1.8 1.3 1.2 1.9 2.8 1.9 4.6 0 1.8-0.6 3.3-1.9 4.5-1.3 1.2-2.8 1.8-4.7 1.8-1.9 0-3.4-0.6-4.6-1.8-1.3-1-1.9-2.5-1.9-4.4z m1.2 78.5v-58h10.3v58h-10.3zM386.3 515.5c5.2 3.7 10.8 5.6 16.7 5.6 8 0 12-2.6 12-7.9 0-2.2-0.9-4.1-2.6-5.5-1.7-1.5-5.3-3.2-10.6-5.2-6.4-2.6-10.6-5.1-12.5-7.7-1.9-2.5-2.9-5.6-2.9-9.2 0-5.1 2.2-9.3 6.5-12.4 4.4-3.1 9.7-4.6 16.1-4.6 4.9 0 9.5 0.9 13.7 2.6v9.9c-4.3-2.8-9.3-4.2-14.7-4.2-3.3 0-6 0.7-8 2.2-2.1 1.4-3.1 3.3-3.1 5.7 0 2.3 0.7 4.1 2.2 5.4 1.5 1.3 4.8 3 9.9 5 6.5 2.4 10.8 4.9 13.1 7.5 2.3 2.6 3.4 5.8 3.4 9.6 0 5.3-2.2 9.5-6.5 12.6-4.4 3.1-10 4.6-16.9 4.6-6 0-11.3-1.1-15.7-3.4v-10.6zM472.9 525.4c-4.4 2.7-9.8 4-16.1 4-8.4 0-15.1-2.7-20.2-8.1-5.1-5.4-7.7-12.4-7.7-20.9 0-9.5 2.8-17.2 8.3-23 5.5-5.8 12.9-8.7 22.1-8.7 5.3 0 9.9 0.9 13.6 2.8v10.2c-4.1-3-8.6-4.5-13.6-4.5-5.9 0-10.7 2-14.3 6.1-3.7 4.1-5.5 9.5-5.5 16.3 0 6.7 1.7 11.9 5.2 15.7 3.5 3.8 8.2 5.7 14.1 5.7 5 0 9.7-1.6 14.2-4.9v9.3zM476.4 499.6c0-9.6 2.7-17.1 8-22.7 5.4-5.5 12.6-8.3 21.8-8.3 8.7 0 15.5 2.7 20.5 8 4.9 5.3 7.4 12.7 7.4 22.1 0 9.2-2.6 16.6-7.9 22.2-5.3 5.6-12.4 8.4-21.2 8.4-8.7 0-15.6-2.7-20.8-8.2-5.2-5.4-7.8-12.5-7.8-21.5z m10.5-0.3c0 6.7 1.7 11.9 5.1 15.8 3.4 3.8 7.9 5.8 13.6 5.8 5.9 0 10.4-1.9 13.4-5.6 3.1-3.8 4.6-9.2 4.6-16.2 0-7.1-1.5-12.5-4.6-16.3-3.1-3.8-7.6-5.7-13.4-5.7-5.8 0-10.3 2-13.7 5.9s-5 9.4-5 16.3zM590 528h-10.3v-9.1h-0.2c-3.9 7-9.8 10.5-17.9 10.5-13.7 0-20.6-8.2-20.6-24.7V470h10.2v33.2c0 11.8 4.5 17.7 13.5 17.7 4.5 0 8.1-1.7 10.9-5 2.8-3.3 4.1-7.5 4.1-12.5V470H590v58zM650.9 528h-10.2v-33c0-11.9-4.4-17.9-13.1-17.9-4.5 0-8.2 1.7-11.1 5-2.9 3.4-4.4 7.6-4.4 12.7V528h-10.3v-58h10.3v9.6h0.2c4.4-7.3 10.7-11 19-11 6.4 0 11.2 2 14.5 6.1 3.3 4.1 5 10 5 17.8V528zM689.5 527.4c-2.2 1.2-5.3 1.8-9.1 1.8-10.4 0-15.6-5.8-15.6-17.3v-33.5h-10V470h10v-14l10.2-3.3V470h14.4v8.5H675v31.7c0 3.8 0.6 6.5 1.9 8.2s3.4 2.5 6.5 2.5c2.3 0 4.3-0.6 6-1.9v8.4z" fill="#47473B" p-id="20535"></path></svg>