<?xml version="1.0" standalone="no"?><!DOCTYPE svg PUBLIC "-//W3C//DTD SVG 1.1//EN" "http://www.w3.org/Graphics/SVG/1.1/DTD/svg11.dtd"><svg t="1680678936175" class="icon" viewBox="0 0 1024 1024" version="1.1" xmlns="http://www.w3.org/2000/svg" p-id="15916" xmlns:xlink="http://www.w3.org/1999/xlink" width="16" height="16"><path d="M12 12m500 0l0 0q500 0 500 500l0 0q0 500-500 500l0 0q-500 0-500-500l0 0q0-500 500-500Z" fill="#DEE5EC" p-id="15917"></path><path d="M707.91 842.15S815 770.29 829 733.65c24.51-64.23 19.51-156.32 19.51-156.32 0-19-125.86-70.66-140.61-70.66s-140.6 51.63-140.6 70.66c0 0-5 92.09 19.5 156.32 13.81 36.64 121.1 108.5 121.1 108.5z m0 0" fill="#005EB8" p-id="15918"></path><path d="M657 159.62a59.46 59.46 0 0 0-42.06-17.42h-344a59.47 59.47 0 0 0-59.47 59.48v622.87A59.47 59.47 0 0 0 270.86 884h326.91a11.9 11.9 0 0 0 0-23.8H270.86a35.64 35.64 0 0 1-35.69-35.68V746h255.29a11.9 11.9 0 1 0 0-23.79H235.17v-435.6h415.41v133.71a11.9 11.9 0 0 0 23.79 0V201.68A59.48 59.48 0 0 0 657 159.62zM235.17 262.83v-61.15A35.66 35.66 0 0 1 270.86 166h344a35.65 35.65 0 0 1 35.69 35.7v61.15z" fill="#0D1633" p-id="15919"></path><path d="M419.08 787.2a11.9 11.9 0 0 0 0 23.79h47.58a11.93 11.93 0 0 0 11.9-11.9 11.78 11.78 0 0 0-11.9-11.89zM488.8 201.45H397a11.89 11.89 0 1 0 0 23.78h91.8a11.89 11.89 0 1 0 0-23.78zM523.06 420.32c0-49-35.93-89-80.18-89s-80.18 40-80.18 89 35.93 89 80.18 89 80.18-39.99 80.18-89z m-80.18 65.42c-30.94 0-56.39-29.26-56.39-65.19s25.22-65.18 56.39-65.18 56.39 29 56.39 65.18c0 35.93-25.46 65.19-56.39 65.19zM442.88 529.77c-91.6 0-163.21 43.77-163.21 99.68v60.43a11.78 11.78 0 0 0 11.9 11.9 12.3 12.3 0 0 0 12.13-11.9v-60.43c0-41.15 63.77-75.89 139.42-75.89a265.78 265.78 0 0 1 34 2.38c6.42 0.71 12.61-3.81 13.32-10.24a12.14 12.14 0 0 0-10.23-13.31 276.89 276.89 0 0 0-37.33-2.62z" fill="#0D1633" p-id="15920"></path><path d="M363.65 652.29a11.77 11.77 0 0 0-11.89 11.89v25.7a11.78 11.78 0 0 0 11.89 11.9 11.93 11.93 0 0 0 11.89-11.9v-25.7a11.77 11.77 0 0 0-11.89-11.89zM903.24 551.89c0-39-183.45-103-195.34-103s-195.32 64.22-195.32 102.53c-0.48 5-6.42 122.28 26.17 206.5 19 49.25 148 135.85 162.5 145.61a13.39 13.39 0 0 0 6.66 1.9 13.92 13.92 0 0 0 6.65-1.9c14.75-9.76 143.47-96.36 162.5-145.61 32.36-84.21 26.42-201.75 26.18-206.03z m-48.76 197.47c-13.08 34-104.91 101.35-146.79 129.91-41.87-28.56-133.69-96.12-146.8-129.91-30.69-79.47-24.75-195.57-25-195.57 9.27-19.5 149.88-79.94 171.77-81.13 22.13 1 162.73 61.63 171.54 79.95 0.02 1.18 5.97 117.29-24.72 196.75zM442.88 575.69A11.77 11.77 0 0 0 431 587.58v65.19a11.78 11.78 0 0 0 11.89 11.89 12.08 12.08 0 0 0 11.89-11.89v-65.19a11.77 11.77 0 0 0-11.9-11.89z" fill="#0D1633" p-id="15921"></path><path d="M693.88 750.79a11.18 11.18 0 0 1-8.34-3.58l-76.13-76.13a12 12 0 1 1 16.9-16.9L694.12 722l115.16-115.16a11.94 11.94 0 0 1 16.89 16.89l-123.49 123.5a13.12 13.12 0 0 1-8.8 3.56z m0 0" fill="#0D1633" p-id="15922"></path></svg>