<?xml version="1.0" encoding="UTF-8"?>
<svg version="1.1" viewBox="0 0 1000 1123" xmlns="http://www.w3.org/2000/svg">
<g transform="translate(.6222 -.6028)">
<svg width="1e3" height="1123" data-background-color="#0074D9" viewBox="0 0 292 328" xmlns="http://www.w3.org/2000/svg" xmlns:xlink="http://www.w3.org/1999/xlink">
<g transform="translate(-.18168 .17811)">
<svg width="292.36" height="327.2" viewBox="0 0 292.3633661743721 327.2">
<svg width="292.36" height="327.2" viewBox="0 0 292.3633661743721 327.2">
<svg width="292.36" height="327.2" viewBox="0 0 292.3633661743721 327.2">
<svg width="292.36" height="327.2" viewBox="0 0 292.3633661743721 327.2">
<svg width="292.36" height="327.2" viewBox="0 0 292.3633661743721 327.2">
<g>
<svg width="292.36" height="327.2" data-palette-color="#000000" viewBox="3.4528097221929195 -24.846068727286344 23.163390277807075 25.888000611661276">
<path class="undefined-text-0" d="m17.435-1.542c-0.163 0.06-0.29 0.06-0.382 2e-3s-0.17-0.172-0.232-0.341l-0.134-0.366c-0.011-0.088-0.043-0.204-0.095-0.349-1.027-2.805-2.426-6.318-4.198-10.539l-0.216 0.079-0.583 0.213-0.591 0.217c-1.146 0.419-1.849 0.709-2.11 0.868 0.548 1.496 1.307 3.32 2.278 5.47 1.103 2.45 1.872 4.27 2.307 5.459 0.112 0.307 0.056 0.501-0.169 0.584-0.307 0.112-0.513 0.024-0.618-0.263-0.385-0.995-0.94-2.364-1.664-4.109-0.717-1.747-1.332-3.222-1.843-4.426-2.171-4.729-4.073-9.325-5.707-13.788-0.076-0.207 0.021-0.359 0.29-0.458 0.119-0.044 0.23-0.041 0.332 6e-3 0.094 0.044 0.155 0.132 0.182 0.264l0.832 2.272c0.202 0.551 0.633 1.575 1.295 3.072l0.45 1.028c0.457 1.132 0.727 1.811 0.809 2.036l0.55 1.503c0.195 0.532 0.345 0.779 0.452 0.739l1.14-0.492 0.59-0.279c0.997-0.457 1.567-0.712 1.712-0.765l4e-3 -0.076c-0.33-0.902-1.016-2.61-2.057-5.125-1.053-2.568-1.74-4.29-2.061-5.167-0.089-0.244 0.01-0.419 0.298-0.524 0.144-0.053 0.279-0.063 0.404-0.031 0.132 0.03 0.22 0.107 0.266 0.233 1.462 3.994 3.138 8.361 5.029 13.1 1.904 4.755 3.055 7.678 3.453 8.767l0.155 0.422c0.06 0.163 0.078 0.319 0.055 0.47-0.029 0.153-0.103 0.251-0.223 0.294zm-0.811 2.522c-0.338-0.104-0.665-0.323-0.981-0.657-0.32-0.342-0.561-0.695-0.721-1.058-0.178-0.466-0.084-1.591 0.283-3.376 0.364-1.778 0.87-3.788 1.515-6.03 0.153-0.497 0.255-0.877 0.308-1.14 1.566-5.238 2.432-8.358 2.601-9.359l0.326-0.381c0.458 0.21 0.521 0.857 0.189 1.941l-2.448 8.318c-0.178 0.58-0.465 1.698-0.862 3.354-0.32 1.499-0.596 2.624-0.827 3.376-0.73 2.377-0.314 3.805 1.248 4.285 0.956 0.293 2.243-1.707 3.86-6.002l0.22-0.612c1.907-5.691 3.282-9.91 4.124-12.657l0.06-0.296c6e-3 -0.089 0.025-0.184 0.056-0.286 0.07-0.229 0.281-0.29 0.631-0.183 0.249 0.076 0.385 0.188 0.41 0.335-0.018 0.218-0.107 0.588-0.267 1.111-0.487 1.587-0.877 2.632-1.171 3.134l-0.027 0.191c-0.084 0.274-0.241 0.683-0.471 1.226l-0.451 1.231-0.097 0.316c-6e-3 0.089-0.028 0.194-0.065 0.315-0.193 0.492-0.36 0.967-0.5 1.426-0.07 0.139-0.154 0.364-0.25 0.676-0.645 1.964-1.213 3.669-1.706 5.115-0.615 1.799-1.334 3.255-2.156 4.369-0.868 1.191-1.811 1.63-2.831 1.318z" data-fill-palette-color="currentColor"/>
</svg>
</g>
</svg>
</svg>
</svg>
</svg>
</svg>
<rect width="292.36" height="327.2" fill="currentColor" visibility="hidden"/>
</g>
</svg>
</g>
</svg>
