<?xml version="1.0" standalone="no"?><!DOCTYPE svg PUBLIC "-//W3C//DTD SVG 1.1//EN" "http://www.w3.org/Graphics/SVG/1.1/DTD/svg11.dtd"><svg t="1680683258544" class="icon" viewBox="0 0 1024 1024" version="1.1" xmlns="http://www.w3.org/2000/svg" p-id="3944" xmlns:xlink="http://www.w3.org/1999/xlink" width="16" height="16"><path d="M675.84 801.28H348.16a15.36 15.36 0 0 0 0 30.72h327.68a15.36 15.36 0 0 0 0-30.72zM707.2768 451.2768a10.8544 10.8544 0 0 0 4.608 1.1264h34.6112a13.9264 13.9264 0 0 0 12.5952-8.0896v-58.6752a11.8784 11.8784 0 0 0-7.9872-11.5712 10.24 10.24 0 0 0-3.4816-1.1264h-35.7376a13.312 13.312 0 0 0-10.24 5.7344 12.5952 12.5952 0 0 0-2.3552 6.9632v52.9408a14.2336 14.2336 0 0 0 7.9872 12.6976zM753.3568 475.4432a9.4208 9.4208 0 0 0-3.4816-1.1264h-39.1168c-3.072 0-6.144 2.2528-9.216 6.8608a12.5952 12.5952 0 0 0-2.3552 6.9632v52.9408a11.9808 11.9808 0 0 0 8.0896 11.8784 12.1856 12.1856 0 0 0 5.7344 1.1264h35.7376a12.6976 12.6976 0 0 0 12.6976-8.0896 10.24 10.24 0 0 0 1.1264-4.608v-53.248a14.0288 14.0288 0 0 0-9.216-12.6976z" fill="#BFCBD8" p-id="3945"></path><path d="M844.5952 207.36h-665.6a61.44 61.44 0 0 0-61.44 61.44v389.12a61.44 61.44 0 0 0 61.44 61.44h665.6a61.44 61.44 0 0 0 61.44-61.44v-389.12a61.44 61.44 0 0 0-61.44-61.44zM433.0496 513.4336c-5.3248 30.72-8.3968 47.616-9.216 51.2a30.72 30.72 0 0 1-5.7344 7.9872 6.7584 6.7584 0 0 1-4.608 2.3552 12.1856 12.1856 0 0 1-6.8608 2.2528h-35.7376a18.6368 18.6368 0 0 1-18.432-14.0288q-13.824-94.5152-13.824-95.6416-13.824 92.16-15.0528 95.6416a18.944 18.944 0 0 1-7.9872 11.5712 20.48 20.48 0 0 1-9.216 2.2528h-35.7376a17.92 17.92 0 0 1-16.1792-10.24 30.72 30.72 0 0 1-3.3792-12.6976l-28.8768-163.84-7.168-40.3456h46.08l21.9136 165.888c1.536 12.288 2.2528 19.1488 2.2528 20.48a3.584 3.584 0 0 0 2.3552 1.1264c1.536 0 2.6624-1.1264 3.3792-3.4816q6.9632-43.8272 23.04-161.28c0.8192-3.072 1.9456-10.24 3.4816-21.9136v-1.1264H358.4q1.024 5.632 10.24 70.2464c11.5712 76.0832 17.3056 114.7904 17.3056 116.4288a3.3792 3.3792 0 0 0 2.2528 1.1264c1.536 0 2.7648-1.1264 3.4816-3.4816q20.48-157.9008 21.9136-169.3696c1.536-9.216 2.3552-14.2336 2.3552-14.9504h46.08q-1.2288 2.56-28.9792 163.84z m197.0176 63.3856H486.0928V349.9008h141.7216a1.024 1.024 0 0 1 1.1264 1.1264v21.9136h-84.0704a13.4144 13.4144 0 0 0-10.24 5.7344 12.4928 12.4928 0 0 0-2.2528 6.9632v52.9408a12.6976 12.6976 0 0 0 9.216 12.6976 9.4208 9.4208 0 0 0 3.4816 1.1264h84.0704v21.9136h-81.92a13.5168 13.5168 0 0 0-13.824 9.216 10.8544 10.8544 0 0 0-1.1264 4.608v52.9408a14.0288 14.0288 0 0 0 9.216 12.6976h88.6784zM808.96 549.1712a25.7024 25.7024 0 0 1-12.5952 23.04 26.624 26.624 0 0 1-15.0528 4.608H653.1072V349.9008h124.416a26.624 26.624 0 0 1 25.3952 16.0768 28.672 28.672 0 0 1 2.2528 10.24v72.4992a29.0816 29.0816 0 0 1-3.3792 12.6976 26.2144 26.2144 0 0 1 7.168 17.5104z" fill="#BFCBD8" p-id="3946"></path></svg>