<?xml version="1.0" standalone="no"?><!DOCTYPE svg PUBLIC "-//W3C//DTD SVG 1.1//EN" "http://www.w3.org/Graphics/SVG/1.1/DTD/svg11.dtd"><svg t="1680681964773" class="icon" viewBox="0 0 1024 1024" version="1.1" xmlns="http://www.w3.org/2000/svg" p-id="49288" xmlns:xlink="http://www.w3.org/1999/xlink" width="16" height="16"><path d="M510.777 513.223m-418.146 0a418.146 418.146 0 1 0 836.292 0 418.146 418.146 0 1 0-836.292 0Z" fill="#FFD7D7" p-id="49289"></path><path d="M499.397 165.537s-14.7-5.568-36.6 15.687-277.37 294.955-297.167 316.007c-19.797 21.052-84.931 84.44-84.534 88.99 0.396 4.55 347.361 163.572 354.479 158.5 17.128-12.205 312.327-347.408 334.291-371.414 24.163-26.409 65.468-67.947 65.468-67.947s-23.977-16.984-24.372-15.479c-0.397 1.503-311.565-124.344-311.565-124.344z" fill="#8AAAF9" p-id="49290"></path><path d="M434.991 749.839c-2.306 0-7.102 0-64.536-24.557-31.482-13.46-74.398-32.467-120.845-53.519-42.646-19.33-85.523-39.14-117.638-54.351-16.448-7.791-29.405-14.056-38.512-18.621-15.601-7.821-17.06-8.842-17.347-12.138-0.365-4.197 1.97-7.87 56.823-63.202 11.719-11.821 22.788-22.987 29.05-29.646 3.744-3.981 16.184-17.284 33.4-35.695 73.639-78.748 246.088-263.16 263.928-280.475 15.122-14.677 27.475-17.757 35.175-17.757 3.887 0 6.244 0.818 6.678 0.982l0.104 0.041c81.82 33.09 293.647 118.493 309.935 123.885 1.687 0.003 4.061 0.232 27.016 16.493a5.001 5.001 0 0 1 0.656 7.606c-0.413 0.415-41.51 41.769-65.325 67.797-5.389 5.89-27.355 30.661-57.76 64.946-127.704 144.004-264.982 298.375-277.317 307.164-0.975 0.695-2.148 1.047-3.485 1.047zM87.954 584.708c16.086 8.733 83.274 40.593 169.496 79.629 108.609 49.173 165.888 72.852 176.452 75.3 19.988-17.75 191.102-210.704 274.41-304.645 30.434-34.318 52.422-59.113 57.863-65.061 19.452-21.259 50.298-52.615 61.433-63.879-7.234-5.017-14.565-9.869-17.132-11.187-2.363-0.335-14.897-4.736-158.692-62.511-74.858-30.078-150.194-60.539-154.108-62.121-0.251-0.072-1.36-0.355-3.186-0.355-4.79 0-14.823 1.94-28.21 14.933-17.667 17.146-189.999 201.435-263.589 280.129-17.222 18.417-29.666 31.725-33.419 35.716-6.353 6.755-17.467 17.966-29.233 29.835-18.062 18.221-44.227 44.613-52.085 54.217z m727.821-293.479z" fill="#280D0D" p-id="49291"></path><path d="M756.627 390.571L397.852 247.385l10.156-10.799 358.775 143.185z" fill="#FFF6EE" p-id="49292"></path><path d="M756.626 395.571a4.997 4.997 0 0 1-1.853-0.356L395.999 252.029a5 5 0 0 1-1.789-8.07l10.155-10.8a4.999 4.999 0 0 1 5.496-1.218l358.775 143.185a5 5 0 0 1 1.789 8.07l-10.156 10.8a4.998 4.998 0 0 1-3.643 1.575zM406.523 245.462l348.794 139.202 2.794-2.971-348.794-139.201-2.794 2.97z" fill="#280D0D" p-id="49293"></path><path d="M407.718 702.229L142.284 585.825c-7.934-3.166-10.165-10.199-4.985-15.708l269.833-284.859c5.181-5.509 15.812-7.408 23.746-4.242l268.059 106.981c7.934 3.166 10.165 10.199 4.985 15.708L431.464 697.987c-5.181 5.509-15.812 7.408-23.746 4.242z" fill="#FFF6EE" p-id="49294"></path><path d="M416.107 708.761c-3.605 0-7.147-0.653-10.243-1.889l-0.154-0.064-265.362-116.373c-5.626-2.271-9.466-6.344-10.54-11.188-0.979-4.417 0.388-8.875 3.849-12.555L403.503 281.82c4.314-4.588 11.417-7.335 18.986-7.335 3.605 0 7.147 0.653 10.243 1.888l268.058 106.98c5.672 2.264 9.544 6.354 10.623 11.222 0.979 4.416-0.388 8.875-3.849 12.556L435.133 701.383c-4.354 4.63-11.456 7.378-19.026 7.378z m-6.463-11.148c1.911 0.75 4.145 1.147 6.464 1.147 4.717 0 9.314-1.648 11.714-4.2l272.432-294.253c0.822-0.875 1.706-2.176 1.396-3.569-0.347-1.563-2.054-3.096-4.566-4.099L429.024 285.66c-1.928-0.77-4.188-1.176-6.536-1.176-4.717 0-9.315 1.648-11.714 4.199L140.929 573.555c-0.783 0.833-1.667 2.134-1.358 3.527 0.347 1.563 2.055 3.096 4.567 4.099l0.154 0.064 265.352 116.368z" fill="#280D0D" p-id="49295"></path><path d="M585.86 499.653L330.084 397.574l95.442-101.493L681.302 398.16z" fill="#45F2FF" p-id="49296"></path><path d="M320.551 461.897l-26.781-10.688c-6.045-2.413-7.746-7.771-3.798-11.969l16.936-18.009c3.947-4.198 12.048-5.645 18.093-3.232l26.781 10.688c6.045 2.413 7.746 7.771 3.798 11.969l-16.936 18.009c-3.948 4.198-12.048 5.645-18.093 3.232zM382.434 486.595l-26.781-10.688c-6.045-2.413-7.746-7.771-3.798-11.969l16.936-18.009c3.947-4.198 12.048-5.645 18.093-3.232l26.781 10.688c6.045 2.413 7.746 7.771 3.798 11.969l-16.936 18.009c-3.948 4.197-12.048 5.644-18.093 3.232zM444.317 511.292l-26.781-10.688c-6.045-2.413-7.746-7.771-3.798-11.969l16.936-18.009c3.947-4.198 12.048-5.645 18.093-3.232l26.781 10.688c6.045 2.413 7.746 7.771 3.798 11.969L462.41 508.06c-3.947 4.198-12.048 5.645-18.093 3.232zM280.285 504.716l-26.781-10.688c-6.045-2.413-7.746-7.771-3.798-11.969l16.936-18.009c3.947-4.198 12.048-5.645 18.093-3.232l26.781 10.688c6.045 2.413 7.746 7.771 3.798 11.969l-16.936 18.009c-3.947 4.197-12.048 5.644-18.093 3.232zM342.168 529.413l-26.781-10.688c-6.045-2.413-7.746-7.771-3.798-11.969l16.936-18.009c3.947-4.198 12.048-5.645 18.093-3.232l26.781 10.688c6.045 2.413 7.746 7.771 3.798 11.969l-16.936 18.009c-3.947 4.197-12.048 5.645-18.093 3.232zM404.052 554.11l-26.781-10.688c-6.045-2.413-7.746-7.771-3.798-11.969l16.936-18.009c3.947-4.198 12.048-5.645 18.093-3.232l26.781 10.688c6.045 2.413 7.746 7.771 3.798 11.969l-16.936 18.009c-3.948 4.198-12.048 5.645-18.093 3.232zM240.02 547.534l-26.781-10.688c-6.045-2.413-7.745-7.771-3.798-11.969l16.936-18.009c3.947-4.198 12.048-5.645 18.093-3.232l26.781 10.688c6.045 2.413 7.746 7.771 3.798 11.969l-16.936 18.009c-3.948 4.197-12.048 5.644-18.093 3.232zM301.903 572.231l-26.781-10.688c-6.045-2.413-7.746-7.771-3.798-11.969l16.936-18.009c3.947-4.198 12.048-5.645 18.093-3.232l26.781 10.688c6.045 2.413 7.746 7.771 3.798 11.969l-16.936 18.009c-3.948 4.198-12.048 5.645-18.093 3.232zM363.786 596.929l-26.781-10.688c-6.045-2.413-7.745-7.771-3.798-11.969l16.936-18.009c3.947-4.198 12.048-5.645 18.093-3.232l26.781 10.688c6.045 2.413 7.745 7.771 3.798 11.969l-16.936 18.009c-3.947 4.197-12.048 5.644-18.093 3.232zM199.754 590.352l-26.781-10.688c-6.045-2.413-7.745-7.771-3.798-11.969l16.936-18.009c3.947-4.198 12.048-5.645 18.093-3.232l26.781 10.688c6.045 2.413 7.746 7.771 3.798 11.969l-16.936 18.009c-3.947 4.198-12.048 5.645-18.093 3.232zM261.637 615.049l-26.781-10.688c-6.045-2.413-7.746-7.771-3.798-11.969l16.936-18.009c3.947-4.198 12.048-5.645 18.093-3.232l26.781 10.688c6.045 2.413 7.746 7.771 3.798 11.969l-16.936 18.009c-3.947 4.198-12.048 5.645-18.093 3.232zM323.521 639.747l-26.781-10.688c-6.045-2.413-7.746-7.771-3.798-11.969l16.936-18.009c3.947-4.198 12.048-5.645 18.093-3.232l26.781 10.688c6.045 2.413 7.746 7.771 3.798 11.969l-16.936 18.009c-3.948 4.197-12.048 5.644-18.093 3.232zM529.506 542.564l-47.526-18.967c-5.312-2.12-6.807-6.829-3.338-10.518l16.804-17.869c3.469-3.689 10.587-4.96 15.9-2.84l47.526 18.967c5.312 2.12 6.807 6.829 3.338 10.518l-16.804 17.869c-3.469 3.688-10.588 4.96-15.9 2.84zM488.308 586.373l-47.526-18.967c-5.312-2.12-6.807-6.829-3.338-10.518l16.804-17.869c3.469-3.689 10.587-4.96 15.9-2.84l47.526 18.968c5.312 2.12 6.807 6.829 3.338 10.518l-16.804 17.869c-3.469 3.688-10.587 4.959-15.9 2.839z" fill="#FFD96E" p-id="49297"></path><path d="M406.845 673.001l-47.526-18.968c-5.312-2.12-6.807-6.829-3.338-10.518l58.002-61.679c3.469-3.689 10.587-4.96 15.9-2.84l47.526 18.968c5.312 2.12 6.807 6.829 3.338 10.518l-58.002 61.679c-3.469 3.689-10.588 4.96-15.9 2.84z" fill="#FF76C4" p-id="49298"></path><path d="M756.439 368.177a4.997 4.997 0 0 1-1.853-0.356L432.548 239.297a5 5 0 0 1-1.789-8.069l6.432-6.839a5 5 0 0 1 5.496-1.219l322.039 128.524a5 5 0 0 1 1.789 8.07l-6.432 6.839a5.004 5.004 0 0 1-3.644 1.574z" fill="#280D0D" p-id="49299"></path><path d="M446.068 234.606s25.57-15.465 42.6-37.631c18.369-23.91 14.022-53.838 14.022-53.838s11.303 27.32 25.556 31.538c6.566 1.943 24.232-5.715 27.924-4.415 3.692 1.301 3.969 9.932 7.348 16.734 3.379 6.802 26.362-5.531 33.503-1.561 4.183 2.326 3.353 15.247 10.535 18.796s20.984-6.161 28.779-3.148c7.795 3.014 3.029 16.965 11.782 18.995s25.038-5.851 30.285-2.206c6.162 4.28 3.926 18.298 12.2 21.601 8.274 3.302 23.053-9.876 27.731-8.47 4.101 1.232-0.24 18.951 12.756 22.871 6.626 1.999 18.52-13.46 24.578-12.205s-2.479 20.802 7.205 24.667 16.252-11.528 22.795-9.333c6.542 2.195 1.342 22.1 8.823 23.118 7.601 1.035 24.511-17.972 24.511-17.972s8.425 32.205-22.875 61.766c-14.393 13.594-40.641 34.18-40.641 34.18L446.068 234.606z" fill="#FFF6EE" p-id="49300"></path><path d="M755.483 363.092a5.001 5.001 0 0 1-1.853-0.356L444.214 239.25a4.998 4.998 0 1 1-0.734-8.922c0.247-0.149 24.993-15.274 41.224-36.399 16.887-21.98 13.079-49.794 13.038-50.073a5 5 0 0 1 9.568-2.63c4.031 9.712 13.665 26.083 22.354 28.655 0.089 0.026 0.439 0.112 1.214 0.112 3.251 0 8.5-1.41 13.132-2.654 4.637-1.245 8.299-2.229 11.033-2.229 1.047 0 1.959 0.142 2.787 0.434 4.664 1.643 6.121 6.749 7.53 11.686 0.66 2.316 1.341 4.702 2.296 6.821 0.173 0.018 0.401 0.032 0.695 0.032 2.622 0 6.787-1.035 10.815-2.035 4.793-1.191 9.75-2.422 13.875-2.422 2.573 0 4.669 0.47 6.408 1.437 3.589 1.995 4.824 6.193 6.02 10.253 1.018 3.458 2.172 7.378 4.301 8.43 0.362 0.179 0.932 0.274 1.646 0.274 2.394 0 5.805-1.031 9.104-2.027 4.07-1.229 8.279-2.501 12.281-2.501 1.952 0 3.748 0.311 5.336 0.925 6.278 2.427 7.575 8.554 8.521 13.028 0.934 4.412 1.417 5.488 2.588 5.76 0.602 0.14 1.353 0.21 2.229 0.21 3.14 0 7.225-0.889 11.176-1.748 4.196-0.913 8.16-1.775 11.621-1.775 2.886 0 5.169 0.612 6.98 1.87 4.274 2.968 5.681 8.116 6.922 12.657 1.241 4.541 2.209 7.58 4.28 8.406 0.294 0.118 0.681 0.177 1.148 0.177 3.269 0 8.408-2.695 12.538-4.86 4.527-2.374 8.104-4.249 11.398-4.249 0.78 0 1.531 0.107 2.231 0.317 4.515 1.356 5.227 6.147 5.854 10.374 0.941 6.334 1.983 10.945 6.789 12.463 1.706-0.085 6.294-3.572 8.772-5.456 4.736-3.6 9.21-7 13.741-7 0.597 0 1.187 0.06 1.752 0.177 6.821 1.414 6.518 8.98 6.295 14.505-0.161 4.036-0.384 9.562 1.749 10.414 0.454 0.182 0.879 0.27 1.3 0.27 2.144 0 4.919-2.383 7.369-4.486 3.257-2.796 6.625-5.688 10.954-5.688 0.99 0 1.969 0.16 2.908 0.475 6.268 2.103 6.896 9.651 7.401 15.716 0.181 2.175 0.47 5.637 1.041 7.117 3.397-0.794 12.37-8.192 19.566-16.271a5.002 5.002 0 0 1 8.571 2.058c0.375 1.432 8.795 35.431-24.279 66.667-14.394 13.595-39.908 33.632-40.987 34.479a4.963 4.963 0 0 1-3.082 1.068zM456.758 233.489l297.895 118.887c6.646-5.274 26.416-21.12 38.039-32.099 18.543-17.513 22.144-35.915 22.334-46.887-6.017 5.639-13.932 11.769-19.912 11.769-0.44 0-0.877-0.029-1.299-0.087-7.856-1.07-8.588-9.853-9.122-16.266-0.169-2.03-0.434-5.203-0.932-6.766-1.03 0.597-2.745 2.068-3.853 3.02-3.58 3.074-8.036 6.899-13.883 6.899-1.689 0-3.374-0.33-5.007-0.981-8.701-3.473-8.3-13.48-8.033-20.103 0.041-1.027 0.094-2.334 0.088-3.457-1.778 1.055-4.19 2.888-5.834 4.137-4.849 3.685-9.862 7.495-14.885 7.495a9.361 9.361 0 0 1-2.709-0.392c-11.357-3.426-13.018-14.601-13.909-20.604-0.066-0.444-0.141-0.944-0.219-1.432-1.458 0.66-3.318 1.635-4.731 2.376-5.367 2.814-11.45 6.004-17.182 6.004-1.743 0-3.377-0.299-4.855-0.889-6.852-2.735-8.719-9.567-10.22-15.058-0.777-2.845-1.656-6.062-2.908-7.027-0.121-0.038-0.516-0.136-1.348-0.136-2.387 0-6.001 0.786-9.496 1.546-4.467 0.972-9.086 1.977-13.301 1.977-1.659 0-3.128-0.153-4.488-0.469-7.646-1.773-9.13-8.789-10.112-13.432-0.678-3.2-1.206-5.331-2.344-5.771-0.434-0.167-1.016-0.252-1.73-0.252-2.524 0-6.015 1.054-9.39 2.074-3.995 1.207-8.125 2.455-11.996 2.455-2.273 0-4.317-0.44-6.075-1.309-6.056-2.992-8.026-9.685-9.465-14.572-0.425-1.445-1.046-3.554-1.527-4.404-0.232-0.05-0.646-0.109-1.307-0.109-2.901 0-7.255 1.081-11.465 2.127-4.823 1.198-9.38 2.33-13.226 2.33-5.699 0-8.21-2.646-9.312-4.865-1.546-3.111-2.476-6.37-3.296-9.245-0.433-1.514-1.042-3.649-1.561-4.784-1.813 0.258-4.964 1.104-7.58 1.807-5.229 1.404-11.155 2.996-15.726 2.996-1.536 0-2.862-0.171-4.052-0.523-7.735-2.289-14.396-9.645-19.363-16.998-1.372 11.037-5.187 24.997-14.83 37.55-11.563 15.052-26.7 26.972-35.873 33.468z" fill="#280D0D" p-id="49301"></path><path d="M435.574 744.721v88.334L81.094 659.591v-73.37z" fill="#3A4ABA" p-id="49302"></path><path d="M435.574 838.055c-0.75 0-1.502-0.168-2.197-0.509L78.896 664.082a4.999 4.999 0 0 1-2.803-4.491v-73.37a4.998 4.998 0 0 1 7.041-4.564l354.48 158.5a5 5 0 0 1 2.959 4.564v88.334a5 5 0 0 1-4.999 5zM86.094 656.471l344.48 168.57v-77.08L86.094 593.934v62.537z" fill="#280D0D" p-id="49303"></path><path d="M435.574 744.721l399.759-439.362-3.074 85.212-396.685 442.484z" fill="#455BC4" p-id="49304"></path><path d="M435.573 838.055a5 5 0 0 1-4.999-5.001V744.72c0-1.245 0.464-2.444 1.302-3.365l399.759-439.361a4.999 4.999 0 1 1 8.695 3.545l-3.074 85.211a5.003 5.003 0 0 1-1.274 3.157L439.297 836.393a5.002 5.002 0 0 1-3.724 1.662z m5.001-91.4v73.333l386.753-431.406 2.517-69.759-389.27 427.832z" fill="#280D0D" p-id="49305"></path><path d="M439.297 836.393c-0.013 0.014-0.029 0.024-0.042 0.038a5.004 5.004 0 0 1-0.851 0.733c-0.063 0.043-0.12 0.092-0.185 0.133a5.053 5.053 0 0 1-0.616 0.327l-0.019 0.008a4.906 4.906 0 0 1-0.868 0.28 4.203 4.203 0 0 1-0.223 0.047c-0.304 0.057-0.61 0.096-0.918 0.096h-0.003a5.06 5.06 0 0 1-0.804-0.073c-0.054-0.009-0.108-0.017-0.163-0.028a5.019 5.019 0 0 1-0.779-0.219c-0.013-0.005-0.026-0.006-0.039-0.011-0.036-0.014-0.068-0.035-0.104-0.049-0.102-0.042-0.206-0.08-0.306-0.129L78.896 664.082a4.999 4.999 0 0 1-2.803-4.491v-73.235c-0.205-4.102 3.284-8.878 56.843-62.905 11.719-11.821 22.788-22.987 29.05-29.646 3.744-3.981 16.184-17.284 33.4-35.695 18.296-19.566 42.693-45.655 69.302-74.083l-0.826 0.097S59.558 563.877 58 576s-3.442 96.258 1 107 368.783 190.302 382.209 184.202c13.426-6.1 380.083-421.338 390.72-459.67 0.947-3.412 1.07-6.605 0.439-9.594L439.297 836.393z" fill="#280D0D" p-id="49306"></path><path d="M437.333 330.52c6.259 0 6.259-9.706 0-9.706-6.259-0.001-6.259 9.706 0 9.706zM424.451 334.626c-12.746 12.806-23.251 27.671-35.883 40.609-4.373 4.479 2.485 11.348 6.863 6.863 12.631-12.938 23.137-27.803 35.883-40.609 4.419-4.439-2.443-11.303-6.863-6.863z" fill="#FFFFFF" p-id="49307"></path><path d="M516.33 224.668a4.982 4.982 0 0 1-2.066-0.45l-14.666-6.667a5 5 0 1 1 4.139-9.104l14.666 6.667a5.003 5.003 0 1 1-2.073 9.554zM593.676 252.668a4.994 4.994 0 0 1-1.705-0.301l-64.667-23.464a5 5 0 1 1 3.41-9.401l64.667 23.464a5 5 0 0 1-1.705 9.702z" fill="#280D0D" p-id="49308"></path><path d="M656.665 278.007a4.974 4.974 0 0 1-1.884-0.371l-53.334-21.719a5 5 0 0 1 3.772-9.262l53.334 21.719a5 5 0 0 1-1.888 9.633z" fill="#280D0D" p-id="49309"></path><path d="M670.5 285.5c6.449 0 6.449-10 0-10s-6.449 10 0 10z" fill="#280D0D" p-id="49310"></path><path d="M682.5 291c6.449 0 6.449-10 0-10s-6.449 10 0 10z" fill="#280D0D" p-id="49311"></path><path d="M698.5 297.5c6.449 0 6.449-10 0-10s-6.449 10 0 10z" fill="#280D0D" p-id="49312"></path><path d="M714.5 302.5c6.449 0 6.449-10 0-10s-6.449 10 0 10z" fill="#280D0D" p-id="49313"></path><path d="M769.738 451l-5.91-40.343-204.862 223.254 4.753 49.792z" fill="#455BC4" p-id="49314"></path><path d="M563.718 688.703a5 5 0 0 1-4.977-4.525l-4.752-49.792a4.995 4.995 0 0 1 1.294-3.855l204.861-223.254a5 5 0 0 1 8.631 2.656l5.91 40.343a4.997 4.997 0 0 1-1.204 4.039L567.463 687.017a5.004 5.004 0 0 1-3.745 1.686z m0.437-53.051l3.447 36.121 196.852-222.347-4.05-27.642-196.249 213.868z" fill="#280D0D" p-id="49315"></path><path d="M83.376 594.857c4.01-0.961 8.018-1.209 12.118-0.805 1.925 0.19 1.907-2.812 0-3-4.358-0.43-8.66-0.109-12.916 0.912-1.88 0.451-1.082 3.344 0.798 2.893z m166.111 145.936a2909.851 2909.851 0 0 1 103.019-4.578c1.931-0.052 1.936-3.052 0-3a2912.451 2912.451 0 0 0-103.019 4.578c-1.921 0.119-1.933 3.12 0 3z m-13.989-6.31l72.515-6.837c1.909-0.18 1.926-3.182 0-3l-72.515 6.837c-1.908 0.18-1.926 3.181 0 3z m-15.501-7.576a559.072 559.072 0 0 0 64.41-5.908c1.908-0.286 1.094-3.177-0.798-2.893a552.16 552.16 0 0 1-63.612 5.801c-1.929 0.065-1.936 3.065 0 3z m-13.687-3.978a1178.992 1178.992 0 0 1 83.211-11.216c1.907-0.188 1.925-3.19 0-3a1190.31 1190.31 0 0 0-84.009 11.323c-1.904 0.326-1.094 3.216 0.798 2.893zM298 719c1.935 0 1.935-3 0-3s-1.935 3 0 3z m-110.544-6.884a1288.668 1288.668 0 0 0 87.453-13.115c1.901-0.352 1.093-3.243-0.798-2.893a1277.36 1277.36 0 0 1-86.655 13.008c-1.899 0.219-1.92 3.221 0 3z m14.871 4.97l35.591-7.04c1.897-0.375 1.092-3.267-0.798-2.893l-35.591 7.04c-1.896 0.375-1.091 3.266 0.798 2.893z m-21.488-12.119c15.445-3.239 31.77-3.864 47.452-5.581 1.902-0.208 1.922-3.211 0-3-15.957 1.748-32.53 2.392-48.25 5.688-1.893 0.397-1.09 3.289 0.798 2.893z m-18.84-8.727a511.66 511.66 0 0 0 39.406-5.256c1.904-0.33 1.094-3.22-0.798-2.893a501.924 501.924 0 0 1-38.609 5.149c-1.908 0.179-1.925 3.181 0.001 3z m5.258 4.332c7.8-0.801 15.504-2.093 23.134-3.907 1.882-0.447 1.083-3.34-0.798-2.893a172.637 172.637 0 0 1-22.337 3.8c-1.904 0.196-1.923 3.197 0.001 3z m-52.018-16.622a746.39 746.39 0 0 0 85.684-8.352c1.907-0.297 1.094-3.188-0.798-2.893a739.276 739.276 0 0 1-84.886 8.245c-1.928 0.076-1.936 3.076 0 3z m28.797 6.389c6.279-2.85 13.837-2.479 20.605-2.857 6.368-0.356 12.741-0.64 19.113-0.93 1.926-0.088 1.935-3.088 0-3-7.646 0.349-15.292 0.705-22.933 1.147-6.251 0.362-12.513 0.424-18.298 3.049-1.761 0.8-0.235 3.384 1.513 2.591z m-28.544-13.742a492.575 492.575 0 0 0 49.412-5.371c1.906-0.305 1.094-3.195-0.798-2.893a484.672 484.672 0 0 1-48.615 5.264c-1.922 0.111-1.933 3.112 0.001 3z m-13.253-7.214a581.12 581.12 0 0 0 49.044-3.6c1.898-0.22 1.92-3.223 0-3a581.12 581.12 0 0 1-49.044 3.6c-1.93 0.06-1.935 3.06 0 3z m-11.246-7.771A557.121 557.121 0 0 0 124 659.001c1.902-0.208 1.922-3.21 0-3a556.276 556.276 0 0 1-33.007 2.611c-1.925 0.095-1.934 3.096 0 3z m-9.744-11.917c9.501-0.15 19-0.116 28.5 0.103 1.936 0.045 1.931-2.956 0-3a735.81 735.81 0 0 0-28.5-0.103c-1.933 0.031-1.936 3.031 0 3z m5.252 6.094l11.5-0.262c1.931-0.044 1.936-3.044 0-3l-11.5 0.262c-1.932 0.044-1.936 3.044 0 3z m-7-15.025a284.27 284.27 0 0 1 17.249-0.254c1.936 0.03 1.933-2.97 0-3a285.086 285.086 0 0 0-17.249 0.254c-1.927 0.087-1.935 3.088 0 3z m3.993-7.618l11.254-0.685c1.922-0.117 1.933-3.118 0-3l-11.254 0.685c-1.922 0.117-1.933 3.117 0 3z m-0.506-7.479a52.041 52.041 0 0 1 9.51-0.393c1.934 0.097 1.925-2.904 0-3a52.126 52.126 0 0 0-9.51 0.393c-1.888 0.252-1.913 3.255 0 3z m-0.24-8.931l7.5-0.997c1.889-0.251 1.913-3.254 0-3l-7.5 0.997c-1.889 0.251-1.913 3.254 0 3z m1.744-6.05a29.723 29.723 0 0 1 5.507-0.166c1.933 0.12 1.921-2.881 0-3a29.81 29.81 0 0 0-5.507 0.166c-0.811 0.1-1.5 0.607-1.5 1.5 0 0.742 0.686 1.6 1.5 1.5z m0.008-7.186h6c1.935 0 1.935-3 0-3h-6c-1.935 0-1.935 3 0 3zM96 615.25c1.935 0 1.935-3 0-3s-1.935 3 0 3zM107.25 640c1.935 0 1.935-3 0-3s-1.935 3 0 3z m-2 16c1.935 0 1.935-3 0-3s-1.935 3 0 3z m156.418 91.11c12.999 0.205 25.999 0.245 39 0.12 1.934-0.019 1.935-3.019 0-3-13 0.125-26 0.086-39-0.12-1.936-0.031-1.933 2.969 0 3z m21.995 9.359a531.895 531.895 0 0 1 39.674-3.209c1.927-0.083 1.935-3.084 0-3a531.363 531.363 0 0 0-39.674 3.209c-1.897 0.225-1.919 3.227 0 3z m14.72 7.199c4.519-0.623 9.057-0.872 13.617-0.804 1.936 0.029 1.933-2.971 0-3-4.836-0.072-9.624 0.25-14.414 0.911-1.91 0.264-1.094 3.154 0.797 2.893z m15.293 6.974c3.437-1.364 6.967-2.184 10.661-2.406 1.922-0.115 1.933-3.116 0-3-3.957 0.237-7.771 1.05-11.459 2.513-1.776 0.705-1.003 3.607 0.798 2.893z m9.721 4.601c2.852-1.42 5.854-2.318 9.005-2.774 1.909-0.276 1.094-3.167-0.798-2.893-3.412 0.494-6.638 1.541-9.722 3.076-1.731 0.862-0.211 3.45 1.515 2.591z m12.603 4.59a7.739 7.739 0 0 0 3.065-0.387c0.774-0.262 1.274-1.022 1.048-1.845-0.207-0.754-1.07-1.31-1.845-1.048a5.313 5.313 0 0 1-2.268 0.28c-0.816-0.063-1.5 0.73-1.5 1.5 0 0.866 0.685 1.437 1.5 1.5z m6.942 4.918a4.443 4.443 0 0 0 3.175-0.408c0.723-0.381 0.937-1.371 0.538-2.052-0.426-0.728-1.329-0.919-2.052-0.538-0.163 0.083-0.19 0.098-0.08 0.046-0.001 0.001-0.496 0.117-0.227 0.083a2.65 2.65 0 0 1-0.321 0.012c-0.434 0.004 0.186 0.063-0.235-0.036-0.795-0.188-1.623 0.238-1.845 1.048-0.211 0.766 0.252 1.657 1.047 1.845zM321 761.5c1.935 0 1.935-3 0-3s-1.935 3 0 3z m38-15c1.935 0 1.935-3 0-3s-1.935 3 0 3z m-2.667 38.333c1.935 0 1.935-3 0-3s-1.934 3 0 3zM207 690.502l10.995-0.598c1.924-0.105 1.934-3.105 0-3l-10.995 0.598c-1.924 0.105-1.934 3.105 0 3z m-36.504-19.567l9.997-0.561c1.923-0.108 1.934-3.108 0-3l-9.997 0.561c-1.923 0.107-1.933 3.108 0 3z m-71.094-38.97c0.612-0.084 1.269 0.098 1.807 0.39 1.7 0.923 3.215-1.667 1.514-2.59-1.309-0.711-2.656-0.892-4.118-0.693-0.812 0.111-1.242 1.137-1.048 1.845 0.238 0.866 1.035 1.159 1.845 1.048z m146.405 78.221c2.181-0.751 4.413-1.279 6.71-1.517 1.904-0.198 1.924-3.2 0-3-2.568 0.267-5.064 0.783-7.507 1.624-1.819 0.626-1.038 3.524 0.797 2.893z m59.201 37.426l7.996-0.563c1.918-0.135 1.932-3.136 0-3l-7.996 0.563c-1.919 0.135-1.932 3.136 0 3z" fill="#280D0D" p-id="49316"></path></svg>